<mxfile host="app.diagrams.net" agent="Mozilla/5.0 (Windows NT 10.0; Win64; x64) AppleWebKit/537.36 (KHTML, like Gecko) Chrome/137.0.0.0 Safari/537.36 OPR/121.0.0.0" version="28.2.4">
  <diagram name="Página-1" id="b7rc665JghNjB6heFU7o">
    <mxGraphModel dx="977" dy="511" grid="1" gridSize="10" guides="1" tooltips="1" connect="1" arrows="1" fold="1" page="1" pageScale="1" pageWidth="827" pageHeight="1169" math="0" shadow="0">
      <root>
        <mxCell id="0" />
        <mxCell id="1" parent="0" />
        <mxCell id="9PoVKS0roA5M8shxLotF-1" value="" style="rounded=1;whiteSpace=wrap;html=1;" parent="1" vertex="1">
          <mxGeometry x="30" y="180" width="750" height="370" as="geometry" />
        </mxCell>
        <mxCell id="9PoVKS0roA5M8shxLotF-2" value="" style="ellipse;whiteSpace=wrap;html=1;aspect=fixed;" parent="1" vertex="1">
          <mxGeometry x="70" y="210" width="80" height="80" as="geometry" />
        </mxCell>
        <mxCell id="9PoVKS0roA5M8shxLotF-3" value="" style="rounded=1;whiteSpace=wrap;html=1;" parent="1" vertex="1">
          <mxGeometry x="50" y="310" width="120" height="190" as="geometry" />
        </mxCell>
        <mxCell id="9PoVKS0roA5M8shxLotF-5" value="Informações basicas sobre Mim como nome, escolaridade e profissão" style="text;html=1;align=center;verticalAlign=middle;whiteSpace=wrap;rounded=0;" parent="1" vertex="1">
          <mxGeometry x="80" y="360" width="60" height="30" as="geometry" />
        </mxCell>
        <mxCell id="9PoVKS0roA5M8shxLotF-6" value="foto" style="text;html=1;align=center;verticalAlign=middle;whiteSpace=wrap;rounded=0;" parent="1" vertex="1">
          <mxGeometry x="80" y="230" width="60" height="40" as="geometry" />
        </mxCell>
        <mxCell id="9PoVKS0roA5M8shxLotF-7" value="" style="rounded=1;whiteSpace=wrap;html=1;" parent="1" vertex="1">
          <mxGeometry x="190" y="430" width="170" height="60" as="geometry" />
        </mxCell>
        <mxCell id="9PoVKS0roA5M8shxLotF-8" value="Competência que eu possuo" style="text;html=1;align=center;verticalAlign=middle;whiteSpace=wrap;rounded=0;" parent="1" vertex="1">
          <mxGeometry x="210" y="445" width="130" height="30" as="geometry" />
        </mxCell>
        <mxCell id="9PoVKS0roA5M8shxLotF-10" value="" style="rounded=1;whiteSpace=wrap;html=1;" parent="1" vertex="1">
          <mxGeometry x="190" y="330" width="170" height="70" as="geometry" />
        </mxCell>
        <mxCell id="9PoVKS0roA5M8shxLotF-11" value="Informções mais detalhadas sobre minha experiência como programador" style="text;html=1;align=center;verticalAlign=middle;whiteSpace=wrap;rounded=0;" parent="1" vertex="1">
          <mxGeometry x="210" y="345" width="140" height="35" as="geometry" />
        </mxCell>
        <mxCell id="9PoVKS0roA5M8shxLotF-12" value="" style="rounded=1;whiteSpace=wrap;html=1;" parent="1" vertex="1">
          <mxGeometry x="400" y="330" width="260" height="160" as="geometry" />
        </mxCell>
        <mxCell id="9PoVKS0roA5M8shxLotF-13" value="Historia de como decidi me tornar programador" style="text;html=1;align=center;verticalAlign=middle;whiteSpace=wrap;rounded=0;" parent="1" vertex="1">
          <mxGeometry x="465" y="345" width="130" height="135" as="geometry" />
        </mxCell>
        <mxCell id="9PoVKS0roA5M8shxLotF-14" value="" style="rounded=1;whiteSpace=wrap;html=1;" parent="1" vertex="1">
          <mxGeometry x="200" y="220" width="380" height="60" as="geometry" />
        </mxCell>
        <mxCell id="9PoVKS0roA5M8shxLotF-15" value="Informações de contato" style="text;html=1;align=center;verticalAlign=middle;whiteSpace=wrap;rounded=0;" parent="1" vertex="1">
          <mxGeometry x="350" y="235" width="60" height="30" as="geometry" />
        </mxCell>
      </root>
    </mxGraphModel>
  </diagram>
</mxfile>
